<svg id="svg" version="1.1" xmlns="http://www.w3.org/2000/svg" xmlns:xlink="http://www.w3.org/1999/xlink" width="400" height="400" viewBox="0, 0, 400,400"><g id="svgg"><path id="path0" d="M188.000 18.387 C 180.230 18.580,178.382 18.739,177.340 19.300 C 176.647 19.674,174.802 20.164,173.240 20.390 C 171.678 20.615,169.095 20.988,167.500 21.218 C 162.170 21.988,147.254 25.896,141.200 28.110 C 139.110 28.874,135.830 30.066,133.910 30.757 C 122.150 34.997,103.770 45.078,93.160 53.110 C 92.368 53.709,90.028 55.479,87.960 57.043 C 76.222 65.918,62.667 79.960,53.298 92.949 C 52.801 93.637,51.768 95.010,51.001 96.000 C 50.233 96.990,49.055 98.700,48.383 99.800 C 47.710 100.900,45.728 104.140,43.978 107.000 C 38.765 115.519,32.903 127.849,29.432 137.600 C 28.610 139.910,27.502 142.970,26.970 144.400 C 26.438 145.830,25.815 147.900,25.585 149.000 C 25.355 150.100,24.814 152.170,24.383 153.600 C 23.246 157.378,21.695 164.170,21.233 167.400 C 21.013 168.940,20.641 171.523,20.406 173.140 C 20.171 174.757,19.680 176.647,19.315 177.340 C 17.857 180.106,17.886 219.949,19.348 222.724 C 19.732 223.453,20.306 226.063,20.624 228.524 C 21.760 237.327,25.132 250.854,28.371 259.600 C 29.064 261.470,30.139 264.440,30.760 266.200 C 32.413 270.884,41.033 288.913,42.451 290.653 C 42.654 290.902,44.251 293.477,46.000 296.375 C 48.705 300.858,58.804 314.962,60.194 316.200 C 60.441 316.420,61.976 318.130,63.605 320.000 C 74.252 332.221,90.670 346.182,103.498 353.924 C 106.304 355.617,109.140 357.381,109.800 357.844 C 112.392 359.661,130.174 368.099,134.200 369.422 C 135.080 369.711,137.780 370.693,140.200 371.603 C 142.620 372.513,145.950 373.607,147.600 374.033 C 149.250 374.459,151.770 375.156,153.200 375.582 C 158.013 377.014,166.171 378.769,170.200 379.239 C 172.400 379.496,175.518 380.135,177.130 380.659 C 182.603 382.438,219.683 382.419,223.134 380.634 C 223.862 380.258,226.559 379.681,229.128 379.352 C 233.761 378.759,241.798 377.053,246.800 375.601 C 248.230 375.185,250.750 374.492,252.400 374.060 C 254.050 373.628,257.200 372.613,259.400 371.804 C 261.600 370.996,264.570 369.914,266.000 369.402 C 269.032 368.315,271.243 367.359,276.200 364.993 C 284.907 360.838,288.412 359.048,290.607 357.634 C 291.490 357.065,292.570 356.386,293.007 356.125 C 300.042 351.912,307.962 346.576,309.200 345.213 C 309.310 345.092,310.120 344.498,311.000 343.894 C 319.631 337.967,337.967 319.631,343.894 311.000 C 344.498 310.120,345.092 309.310,345.213 309.200 C 346.576 307.962,351.912 300.042,356.125 293.007 C 356.386 292.570,357.065 291.490,357.634 290.607 C 359.048 288.412,360.838 284.907,364.993 276.200 C 367.359 271.243,368.315 269.032,369.402 266.000 C 369.914 264.570,370.996 261.600,371.804 259.400 C 372.613 257.200,373.630 254.050,374.063 252.400 C 374.497 250.750,375.195 248.230,375.614 246.800 C 377.026 241.984,378.750 233.833,379.352 229.128 C 379.681 226.559,380.258 223.862,380.634 223.134 C 382.419 219.683,382.438 182.603,380.659 177.130 C 380.135 175.518,379.496 172.400,379.239 170.200 C 378.769 166.168,377.012 158.006,375.581 153.200 C 375.155 151.770,374.464 149.250,374.045 147.600 C 373.626 145.950,372.533 142.620,371.616 140.200 C 370.698 137.780,369.711 135.080,369.422 134.200 C 368.099 130.174,359.661 112.392,357.844 109.800 C 357.381 109.140,355.617 106.304,353.924 103.498 C 346.182 90.670,332.221 74.252,320.000 63.605 C 318.130 61.976,316.420 60.441,316.200 60.194 C 314.962 58.804,300.858 48.705,296.375 46.000 C 293.477 44.251,290.902 42.654,290.653 42.451 C 288.913 41.033,270.884 32.413,266.200 30.760 C 264.440 30.139,261.470 29.064,259.600 28.371 C 254.998 26.667,246.504 24.232,239.600 22.637 C 234.030 21.351,233.716 21.294,228.524 20.624 C 226.063 20.306,223.495 19.760,222.819 19.410 C 220.848 18.391,205.737 17.947,188.000 18.387 M209.200 41.186 C 213.445 41.390,219.158 41.963,222.600 42.529 C 225.900 43.073,229.680 43.690,231.000 43.902 C 237.554 44.954,253.630 49.820,261.400 53.103 C 286.165 63.569,308.375 80.406,324.709 101.098 C 329.813 107.563,332.768 111.727,335.223 115.912 C 336.420 117.954,338.076 120.744,338.902 122.112 C 339.729 123.481,340.587 125.026,340.810 125.546 C 341.033 126.066,342.302 128.676,343.630 131.346 C 346.173 136.459,347.406 139.347,349.289 144.600 C 351.043 149.493,353.497 157.235,353.790 158.800 C 353.934 159.570,354.568 162.180,355.198 164.600 C 355.828 167.020,356.623 170.980,356.965 173.400 C 357.306 175.820,357.884 179.330,358.249 181.200 C 359.357 186.886,359.214 213.796,358.043 220.000 C 357.566 222.530,356.928 226.413,356.626 228.628 C 356.324 230.844,355.706 233.904,355.253 235.428 C 354.799 236.953,354.157 239.460,353.825 241.000 C 352.685 246.297,347.570 260.847,345.179 265.599 C 344.791 266.370,343.619 268.800,342.573 271.000 C 340.045 276.321,333.747 286.810,330.012 291.920 C 328.355 294.186,326.719 296.475,326.375 297.005 C 322.406 303.126,303.205 322.332,297.012 326.375 C 296.485 326.719,294.221 328.337,291.980 329.971 C 285.893 334.411,277.339 339.542,270.917 342.605 C 268.763 343.633,266.287 344.834,265.415 345.275 C 263.453 346.267,258.713 348.169,255.000 349.456 C 247.863 351.929,242.866 353.512,241.400 353.763 C 240.520 353.914,238.180 354.497,236.200 355.058 C 234.220 355.619,230.800 356.325,228.600 356.627 C 226.400 356.928,222.530 357.566,220.000 358.043 C 213.796 359.214,186.886 359.357,181.200 358.249 C 179.330 357.884,175.820 357.308,173.400 356.969 C 170.980 356.630,167.380 355.918,165.400 355.387 C 163.420 354.856,160.540 354.153,159.000 353.825 C 156.558 353.304,153.882 352.459,145.000 349.405 C 140.680 347.919,135.986 345.933,131.346 343.627 C 128.676 342.301,126.066 341.033,125.546 340.810 C 125.026 340.587,123.481 339.729,122.112 338.902 C 120.744 338.076,117.954 336.420,115.912 335.223 C 111.727 332.768,107.563 329.813,101.098 324.709 C 80.406 308.375,63.569 286.165,53.103 261.400 C 49.820 253.630,44.954 237.554,43.902 231.000 C 43.690 229.680,43.073 225.900,42.530 222.600 C 40.463 210.035,40.466 189.805,42.536 177.400 C 43.087 174.100,43.705 170.320,43.909 169.000 C 44.572 164.723,47.389 154.321,49.271 149.200 C 49.716 147.990,50.350 146.190,50.681 145.200 C 51.690 142.182,54.053 136.326,55.201 134.000 C 59.131 126.031,61.356 121.702,61.976 120.818 C 62.369 120.258,63.546 118.360,64.593 116.600 C 67.398 111.881,68.226 110.656,71.985 105.662 C 73.863 103.167,75.695 100.676,76.055 100.129 C 78.491 96.424,96.426 78.493,100.145 76.045 C 100.684 75.690,103.167 73.863,105.662 71.985 C 110.656 68.226,111.881 67.398,116.600 64.593 C 118.360 63.546,120.258 62.369,120.818 61.976 C 121.702 61.356,126.031 59.131,134.000 55.201 C 136.326 54.053,142.182 51.690,145.200 50.681 C 146.190 50.350,147.990 49.716,149.200 49.271 C 154.321 47.389,164.723 44.572,169.000 43.909 C 170.320 43.705,174.100 43.082,177.400 42.525 C 186.133 41.050,196.919 40.596,209.200 41.186 M125.800 132.380 C 107.150 135.516,93.246 147.731,87.827 165.743 C 84.414 177.086,84.836 177.600,97.550 177.600 C 108.787 177.600,108.853 177.579,109.305 173.784 C 109.920 168.619,114.785 161.446,119.664 158.509 C 133.318 150.291,149.571 157.245,153.609 173.034 C 154.849 177.883,154.119 177.600,165.373 177.600 C 177.661 177.600,178.358 177.074,176.257 169.387 C 174.349 162.410,173.869 160.954,172.667 158.515 C 166.444 145.874,156.567 137.596,143.156 133.779 C 137.808 132.258,130.184 131.643,125.800 132.380 M262.600 132.380 C 241.713 135.894,224.571 153.718,223.302 173.244 C 223.010 177.726,222.682 177.600,234.627 177.600 C 245.557 177.600,245.320 177.668,246.050 174.329 C 248.628 162.547,257.544 155.004,268.800 155.082 C 279.374 155.155,289.145 163.530,290.821 173.956 C 291.414 177.646,291.273 177.602,302.544 177.587 C 314.316 177.572,313.843 177.756,313.702 173.229 C 313.426 164.387,305.974 149.393,299.316 144.284 C 298.702 143.813,298.110 143.308,298.000 143.162 C 293.143 136.719,273.100 130.614,262.600 132.380 M164.031 245.508 C 153.344 245.643,153.437 245.573,154.599 252.600 C 157.779 271.825,171.564 285.730,192.105 290.432 C 198.382 291.869,212.132 289.952,218.433 286.762 C 231.945 279.922,239.647 270.507,243.421 256.213 C 246.260 245.463,246.311 245.517,233.406 245.554 C 223.345 245.582,222.571 245.717,222.161 247.512 C 219.864 257.565,215.868 262.808,207.804 266.353 C 195.281 271.857,180.216 263.672,177.337 249.800 C 176.408 245.323,176.494 245.351,164.031 245.508 " stroke="none" fill="#d52424" fill-rule="evenodd"></path><path id="path1" d="M177.600 0.400 C 177.600 0.644,175.733 0.800,172.800 0.800 C 168.800 0.800,168.000 0.900,168.000 1.400 C 168.000 1.880,167.400 2.000,165.000 2.000 C 162.600 2.000,162.000 2.120,162.000 2.600 C 162.000 3.080,161.399 3.200,158.987 3.200 C 156.679 3.200,155.921 3.340,155.745 3.800 C 155.573 4.247,154.860 4.400,152.945 4.400 C 151.029 4.400,150.316 4.553,150.145 5.000 C 149.983 5.420,149.328 5.600,147.957 5.600 C 146.484 5.600,146.000 5.748,146.000 6.200 C 146.000 6.667,145.467 6.800,143.600 6.800 C 141.733 6.800,141.200 6.933,141.200 7.400 C 141.200 7.844,140.733 8.000,139.400 8.000 C 138.067 8.000,137.600 8.156,137.600 8.600 C 137.600 9.034,137.154 9.200,135.987 9.200 C 134.923 9.200,134.297 9.404,134.145 9.800 C 134.013 10.142,133.417 10.400,132.757 10.400 C 131.995 10.400,131.600 10.605,131.600 11.000 C 131.600 11.444,131.133 11.600,129.800 11.600 C 128.467 11.600,128.000 11.756,128.000 12.200 C 128.000 12.644,127.533 12.800,126.200 12.800 C 124.867 12.800,124.400 12.956,124.400 13.400 C 124.400 13.844,123.933 14.000,122.600 14.000 C 121.267 14.000,120.800 14.156,120.800 14.600 C 120.800 15.000,120.400 15.200,119.600 15.200 C 118.800 15.200,118.400 15.400,118.400 15.800 C 118.400 16.200,118.000 16.400,117.200 16.400 C 116.400 16.400,116.000 16.600,116.000 17.000 C 116.000 17.395,115.605 17.600,114.843 17.600 C 114.183 17.600,113.587 17.858,113.455 18.200 C 113.329 18.530,112.764 18.800,112.200 18.800 C 111.636 18.800,111.071 19.070,110.945 19.400 C 110.818 19.730,110.278 20.000,109.745 20.000 C 109.211 20.000,108.671 20.270,108.545 20.600 C 108.413 20.942,107.817 21.200,107.157 21.200 C 106.395 21.200,106.000 21.405,106.000 21.800 C 106.000 22.200,105.600 22.400,104.800 22.400 C 104.000 22.400,103.600 22.600,103.600 23.000 C 103.600 23.375,103.221 23.600,102.587 23.600 C 102.031 23.600,101.471 23.870,101.345 24.200 C 101.218 24.530,100.864 24.800,100.557 24.800 C 100.251 24.800,100.000 25.070,100.000 25.400 C 100.000 25.800,99.600 26.000,98.800 26.000 C 98.000 26.000,97.600 26.200,97.600 26.600 C 97.600 26.930,97.253 27.200,96.829 27.200 C 96.404 27.200,95.787 27.470,95.457 27.800 C 95.127 28.130,94.664 28.400,94.429 28.400 C 94.193 28.400,94.000 28.670,94.000 29.000 C 94.000 29.400,93.600 29.600,92.800 29.600 C 92.109 29.600,91.598 29.812,91.596 30.100 C 91.594 30.375,90.784 30.955,89.796 31.390 C 88.808 31.824,88.000 32.409,88.000 32.690 C 88.000 32.970,87.653 33.200,87.229 33.200 C 86.804 33.200,86.187 33.470,85.857 33.800 C 85.527 34.130,85.064 34.400,84.829 34.400 C 84.593 34.400,84.400 34.670,84.400 35.000 C 84.400 35.330,84.130 35.600,83.800 35.600 C 83.470 35.600,83.200 35.850,83.200 36.157 C 83.200 36.463,82.725 36.832,82.145 36.978 C 81.565 37.124,80.625 37.773,80.056 38.421 C 79.487 39.070,78.792 39.600,78.511 39.600 C 78.230 39.600,78.000 39.870,78.000 40.200 C 78.000 40.573,77.622 40.800,77.000 40.800 C 76.378 40.800,76.000 41.027,76.000 41.400 C 76.000 41.733,75.644 42.000,75.200 42.000 C 74.756 42.000,74.400 42.267,74.400 42.600 C 74.400 42.930,74.130 43.200,73.800 43.200 C 73.470 43.200,73.200 43.470,73.200 43.800 C 73.200 44.159,72.831 44.400,72.281 44.400 C 71.751 44.400,70.947 44.900,70.381 45.583 C 69.842 46.234,69.175 46.774,68.900 46.783 C 68.625 46.792,68.400 47.070,68.400 47.400 C 68.400 47.730,68.130 48.000,67.800 48.000 C 67.470 48.000,67.200 48.270,67.200 48.600 C 67.200 48.930,66.930 49.200,66.600 49.200 C 66.270 49.200,66.000 49.470,66.000 49.800 C 66.000 50.130,65.730 50.400,65.400 50.400 C 65.070 50.400,64.800 50.670,64.800 51.000 C 64.800 51.330,64.530 51.600,64.200 51.600 C 63.870 51.600,63.600 51.870,63.600 52.200 C 63.600 52.530,63.330 52.800,63.000 52.800 C 62.670 52.800,62.400 53.070,62.400 53.400 C 62.400 53.730,62.130 54.000,61.800 54.000 C 61.470 54.000,61.200 54.270,61.200 54.600 C 61.200 54.930,60.852 55.200,60.426 55.200 C 59.420 55.200,55.200 59.420,55.200 60.426 C 55.200 60.852,54.930 61.200,54.600 61.200 C 54.270 61.200,54.000 61.470,54.000 61.800 C 54.000 62.130,53.730 62.400,53.400 62.400 C 53.070 62.400,52.800 62.670,52.800 63.000 C 52.800 63.330,52.530 63.600,52.200 63.600 C 51.870 63.600,51.600 63.870,51.600 64.200 C 51.600 64.530,51.330 64.800,51.000 64.800 C 50.670 64.800,50.400 65.070,50.400 65.400 C 50.400 65.730,50.130 66.000,49.800 66.000 C 49.470 66.000,49.200 66.270,49.200 66.600 C 49.200 66.930,48.930 67.200,48.600 67.200 C 48.270 67.200,48.000 67.470,48.000 67.800 C 48.000 68.130,47.730 68.400,47.400 68.400 C 47.070 68.400,46.792 68.625,46.783 68.900 C 46.774 69.175,46.234 69.842,45.583 70.381 C 44.900 70.947,44.400 71.751,44.400 72.281 C 44.400 72.831,44.159 73.200,43.800 73.200 C 43.470 73.200,43.200 73.470,43.200 73.800 C 43.200 74.130,42.930 74.400,42.600 74.400 C 42.267 74.400,42.000 74.756,42.000 75.200 C 42.000 75.644,41.733 76.000,41.400 76.000 C 41.027 76.000,40.800 76.378,40.800 77.000 C 40.800 77.622,40.573 78.000,40.200 78.000 C 39.870 78.000,39.600 78.230,39.600 78.511 C 39.600 78.792,39.070 79.487,38.421 80.056 C 37.773 80.625,37.124 81.565,36.978 82.145 C 36.832 82.725,36.463 83.200,36.157 83.200 C 35.850 83.200,35.600 83.470,35.600 83.800 C 35.600 84.130,35.330 84.400,35.000 84.400 C 34.670 84.400,34.400 84.593,34.400 84.829 C 34.400 85.064,34.130 85.527,33.800 85.857 C 33.470 86.187,33.200 86.804,33.200 87.229 C 33.200 87.653,32.970 88.000,32.690 88.000 C 32.409 88.000,31.824 88.808,31.390 89.796 C 30.955 90.784,30.375 91.594,30.100 91.596 C 29.812 91.598,29.600 92.109,29.600 92.800 C 29.600 93.600,29.400 94.000,29.000 94.000 C 28.670 94.000,28.400 94.193,28.400 94.429 C 28.400 94.664,28.130 95.127,27.800 95.457 C 27.470 95.787,27.200 96.404,27.200 96.829 C 27.200 97.253,26.930 97.600,26.600 97.600 C 26.200 97.600,26.000 98.000,26.000 98.800 C 26.000 99.600,25.800 100.000,25.400 100.000 C 25.070 100.000,24.800 100.251,24.800 100.557 C 24.800 100.864,24.530 101.218,24.200 101.345 C 23.870 101.471,23.600 102.031,23.600 102.587 C 23.600 103.221,23.375 103.600,23.000 103.600 C 22.600 103.600,22.400 104.000,22.400 104.800 C 22.400 105.600,22.200 106.000,21.800 106.000 C 21.405 106.000,21.200 106.395,21.200 107.157 C 21.200 107.817,20.942 108.413,20.600 108.545 C 20.270 108.671,20.000 109.211,20.000 109.745 C 20.000 110.278,19.730 110.818,19.400 110.945 C 19.070 111.071,18.800 111.636,18.800 112.200 C 18.800 112.764,18.530 113.329,18.200 113.455 C 17.858 113.587,17.600 114.183,17.600 114.843 C 17.600 115.605,17.395 116.000,17.000 116.000 C 16.600 116.000,16.400 116.400,16.400 117.200 C 16.400 118.000,16.200 118.400,15.800 118.400 C 15.400 118.400,15.200 118.800,15.200 119.600 C 15.200 120.400,15.000 120.800,14.600 120.800 C 14.156 120.800,14.000 121.267,14.000 122.600 C 14.000 123.933,13.844 124.400,13.400 124.400 C 12.956 124.400,12.800 124.867,12.800 126.200 C 12.800 127.533,12.644 128.000,12.200 128.000 C 11.756 128.000,11.600 128.467,11.600 129.800 C 11.600 131.133,11.444 131.600,11.000 131.600 C 10.605 131.600,10.400 131.995,10.400 132.757 C 10.400 133.417,10.142 134.013,9.800 134.145 C 9.404 134.297,9.200 134.923,9.200 135.987 C 9.200 137.154,9.034 137.600,8.600 137.600 C 8.156 137.600,8.000 138.067,8.000 139.400 C 8.000 140.733,7.844 141.200,7.400 141.200 C 6.933 141.200,6.800 141.733,6.800 143.600 C 6.800 145.467,6.667 146.000,6.200 146.000 C 5.748 146.000,5.600 146.484,5.600 147.957 C 5.600 149.328,5.420 149.983,5.000 150.145 C 4.553 150.316,4.400 151.029,4.400 152.945 C 4.400 154.860,4.247 155.573,3.800 155.745 C 3.340 155.921,3.200 156.679,3.200 158.987 C 3.200 161.399,3.080 162.000,2.600 162.000 C 2.120 162.000,2.000 162.600,2.000 165.000 C 2.000 167.400,1.880 168.000,1.400 168.000 C 0.900 168.000,0.800 168.800,0.800 172.800 C 0.800 175.733,0.644 177.600,0.400 177.600 C 0.138 177.600,0.000 185.333,0.000 200.000 C 0.000 214.667,0.138 222.400,0.400 222.400 C 0.644 222.400,0.800 224.267,0.800 227.200 C 0.800 231.200,0.900 232.000,1.400 232.000 C 1.880 232.000,2.000 232.600,2.000 235.000 C 2.000 237.400,2.120 238.000,2.600 238.000 C 3.080 238.000,3.200 238.601,3.200 241.013 C 3.200 243.321,3.340 244.079,3.800 244.255 C 4.247 244.427,4.400 245.140,4.400 247.055 C 4.400 248.971,4.553 249.684,5.000 249.855 C 5.420 250.017,5.600 250.672,5.600 252.043 C 5.600 253.516,5.748 254.000,6.200 254.000 C 6.667 254.000,6.800 254.533,6.800 256.400 C 6.800 258.267,6.933 258.800,7.400 258.800 C 7.844 258.800,8.000 259.267,8.000 260.600 C 8.000 261.933,8.156 262.400,8.600 262.400 C 9.034 262.400,9.200 262.846,9.200 264.013 C 9.200 265.077,9.404 265.703,9.800 265.855 C 10.142 265.987,10.400 266.583,10.400 267.243 C 10.400 268.005,10.605 268.400,11.000 268.400 C 11.444 268.400,11.600 268.867,11.600 270.200 C 11.600 271.533,11.756 272.000,12.200 272.000 C 12.644 272.000,12.800 272.467,12.800 273.800 C 12.800 275.133,12.956 275.600,13.400 275.600 C 13.844 275.600,14.000 276.067,14.000 277.400 C 14.000 278.733,14.156 279.200,14.600 279.200 C 15.000 279.200,15.200 279.600,15.200 280.400 C 15.200 281.200,15.400 281.600,15.800 281.600 C 16.200 281.600,16.400 282.000,16.400 282.800 C 16.400 283.600,16.600 284.000,17.000 284.000 C 17.401 284.000,17.600 284.401,17.600 285.213 C 17.600 285.921,17.849 286.521,18.200 286.655 C 18.530 286.782,18.800 287.322,18.800 287.855 C 18.800 288.389,19.070 288.929,19.400 289.055 C 19.730 289.182,20.000 289.722,20.000 290.255 C 20.000 290.789,20.270 291.329,20.600 291.455 C 20.942 291.587,21.200 292.183,21.200 292.843 C 21.200 293.605,21.405 294.000,21.800 294.000 C 22.200 294.000,22.400 294.400,22.400 295.200 C 22.400 296.000,22.600 296.400,23.000 296.400 C 23.375 296.400,23.600 296.779,23.600 297.413 C 23.600 297.969,23.870 298.529,24.200 298.655 C 24.530 298.782,24.800 299.136,24.800 299.443 C 24.800 299.749,25.070 300.000,25.400 300.000 C 25.800 300.000,26.000 300.400,26.000 301.200 C 26.000 302.000,26.200 302.400,26.600 302.400 C 26.930 302.400,27.200 302.747,27.200 303.171 C 27.200 303.596,27.470 304.213,27.800 304.543 C 28.130 304.873,28.400 305.336,28.400 305.571 C 28.400 305.807,28.670 306.000,29.000 306.000 C 29.400 306.000,29.600 306.400,29.600 307.200 C 29.600 308.000,29.800 308.400,30.200 308.400 C 30.530 308.400,30.800 308.747,30.800 309.171 C 30.800 309.596,31.070 310.213,31.400 310.543 C 31.730 310.873,32.000 311.336,32.000 311.571 C 32.000 311.807,32.270 312.000,32.600 312.000 C 32.930 312.000,33.200 312.347,33.200 312.771 C 33.200 313.196,33.470 313.813,33.800 314.143 C 34.130 314.473,34.400 314.936,34.400 315.171 C 34.400 315.407,34.670 315.600,35.000 315.600 C 35.330 315.600,35.600 315.870,35.600 316.200 C 35.600 316.530,35.850 316.800,36.157 316.800 C 36.463 316.800,36.829 317.262,36.971 317.828 C 37.113 318.393,37.763 319.377,38.415 320.014 C 39.067 320.652,39.600 321.359,39.600 321.587 C 39.600 321.814,39.870 322.000,40.200 322.000 C 40.573 322.000,40.800 322.378,40.800 323.000 C 40.800 323.622,41.027 324.000,41.400 324.000 C 41.733 324.000,42.000 324.356,42.000 324.800 C 42.000 325.244,42.267 325.600,42.600 325.600 C 42.930 325.600,43.200 325.870,43.200 326.200 C 43.200 326.530,43.470 326.800,43.800 326.800 C 44.175 326.800,44.400 327.179,44.400 327.813 C 44.400 328.369,44.670 328.929,45.000 329.055 C 45.330 329.182,45.600 329.536,45.600 329.843 C 45.600 330.149,45.870 330.400,46.200 330.400 C 46.530 330.400,46.800 330.670,46.800 331.000 C 46.800 331.330,47.070 331.600,47.400 331.600 C 47.730 331.600,48.000 331.870,48.000 332.200 C 48.000 332.530,48.270 332.800,48.600 332.800 C 48.930 332.800,49.200 333.070,49.200 333.400 C 49.200 333.730,49.470 334.000,49.800 334.000 C 50.130 334.000,50.400 334.270,50.400 334.600 C 50.400 334.930,50.670 335.200,51.000 335.200 C 51.330 335.200,51.600 335.470,51.600 335.800 C 51.600 336.130,51.870 336.400,52.200 336.400 C 52.530 336.400,52.800 336.670,52.800 337.000 C 52.800 337.330,53.070 337.600,53.400 337.600 C 53.730 337.600,54.000 337.926,54.000 338.324 C 54.000 339.324,59.419 344.800,60.408 344.800 C 60.845 344.800,61.200 345.069,61.200 345.400 C 61.200 345.730,61.470 346.000,61.800 346.000 C 62.130 346.000,62.400 346.270,62.400 346.600 C 62.400 346.930,62.670 347.200,63.000 347.200 C 63.330 347.200,63.600 347.470,63.600 347.800 C 63.600 348.130,63.870 348.400,64.200 348.400 C 64.530 348.400,64.800 348.670,64.800 349.000 C 64.800 349.330,65.070 349.600,65.400 349.600 C 65.730 349.600,66.000 349.870,66.000 350.200 C 66.000 350.530,66.270 350.800,66.600 350.800 C 66.930 350.800,67.200 351.070,67.200 351.400 C 67.200 351.730,67.470 352.000,67.800 352.000 C 68.130 352.000,68.400 352.270,68.400 352.600 C 68.400 352.930,68.625 353.208,68.900 353.217 C 69.175 353.226,69.842 353.766,70.381 354.417 C 70.947 355.100,71.751 355.600,72.281 355.600 C 72.831 355.600,73.200 355.841,73.200 356.200 C 73.200 356.530,73.470 356.800,73.800 356.800 C 74.130 356.800,74.400 357.070,74.400 357.400 C 74.400 357.733,74.756 358.000,75.200 358.000 C 75.644 358.000,76.000 358.267,76.000 358.600 C 76.000 358.973,76.378 359.200,77.000 359.200 C 77.631 359.200,78.000 359.426,78.000 359.813 C 78.000 360.149,78.311 360.544,78.691 360.690 C 79.071 360.836,79.755 361.358,80.211 361.850 C 80.667 362.342,81.526 362.867,82.120 363.016 C 82.714 363.165,83.200 363.537,83.200 363.843 C 83.200 364.150,83.470 364.400,83.800 364.400 C 84.130 364.400,84.400 364.670,84.400 365.000 C 84.400 365.330,84.593 365.600,84.829 365.600 C 85.064 365.600,85.527 365.870,85.857 366.200 C 86.187 366.530,86.804 366.800,87.229 366.800 C 87.653 366.800,88.000 367.070,88.000 367.400 C 88.000 367.730,88.193 368.000,88.429 368.000 C 88.664 368.000,89.127 368.270,89.457 368.600 C 89.787 368.930,90.404 369.200,90.829 369.200 C 91.253 369.200,91.600 369.470,91.600 369.800 C 91.600 370.200,92.000 370.400,92.800 370.400 C 93.600 370.400,94.000 370.600,94.000 371.000 C 94.000 371.330,94.251 371.600,94.557 371.600 C 94.864 371.600,95.218 371.870,95.345 372.200 C 95.471 372.530,96.031 372.800,96.587 372.800 C 97.221 372.800,97.600 373.025,97.600 373.400 C 97.600 373.800,98.000 374.000,98.800 374.000 C 99.600 374.000,100.000 374.200,100.000 374.600 C 100.000 374.930,100.251 375.200,100.557 375.200 C 100.864 375.200,101.218 375.470,101.345 375.800 C 101.471 376.130,102.031 376.400,102.587 376.400 C 103.221 376.400,103.600 376.625,103.600 377.000 C 103.600 377.400,104.000 377.600,104.800 377.600 C 105.600 377.600,106.000 377.800,106.000 378.200 C 106.000 378.600,106.400 378.800,107.200 378.800 C 108.000 378.800,108.400 379.000,108.400 379.400 C 108.400 379.795,108.795 380.000,109.557 380.000 C 110.217 380.000,110.813 380.258,110.945 380.600 C 111.071 380.930,111.611 381.200,112.145 381.200 C 112.678 381.200,113.218 381.470,113.345 381.800 C 113.479 382.151,114.079 382.400,114.787 382.400 C 115.599 382.400,116.000 382.599,116.000 383.000 C 116.000 383.400,116.400 383.600,117.200 383.600 C 118.000 383.600,118.400 383.800,118.400 384.200 C 118.400 384.600,118.800 384.800,119.600 384.800 C 120.400 384.800,120.800 385.000,120.800 385.400 C 120.800 385.844,121.267 386.000,122.600 386.000 C 123.933 386.000,124.400 386.156,124.400 386.600 C 124.400 387.044,124.867 387.200,126.200 387.200 C 127.533 387.200,128.000 387.356,128.000 387.800 C 128.000 388.244,128.467 388.400,129.800 388.400 C 131.133 388.400,131.600 388.556,131.600 389.000 C 131.600 389.395,131.995 389.600,132.757 389.600 C 133.417 389.600,134.013 389.858,134.145 390.200 C 134.297 390.596,134.923 390.800,135.987 390.800 C 137.154 390.800,137.600 390.966,137.600 391.400 C 137.600 391.844,138.067 392.000,139.400 392.000 C 140.733 392.000,141.200 392.156,141.200 392.600 C 141.200 393.067,141.733 393.200,143.600 393.200 C 145.467 393.200,146.000 393.333,146.000 393.800 C 146.000 394.252,146.484 394.400,147.957 394.400 C 149.328 394.400,149.983 394.580,150.145 395.000 C 150.316 395.447,151.029 395.600,152.945 395.600 C 154.860 395.600,155.573 395.753,155.745 396.200 C 155.921 396.660,156.679 396.800,158.987 396.800 C 161.399 396.800,162.000 396.920,162.000 397.400 C 162.000 397.880,162.600 398.000,165.000 398.000 C 167.400 398.000,168.000 398.120,168.000 398.600 C 168.000 399.100,168.800 399.200,172.800 399.200 C 175.733 399.200,177.600 399.356,177.600 399.600 C 177.600 399.862,185.333 400.000,200.000 400.000 C 214.667 400.000,222.400 399.862,222.400 399.600 C 222.400 399.356,224.267 399.200,227.200 399.200 C 231.200 399.200,232.000 399.100,232.000 398.600 C 232.000 398.120,232.600 398.000,235.000 398.000 C 237.400 398.000,238.000 397.880,238.000 397.400 C 238.000 396.920,238.601 396.800,241.013 396.800 C 243.321 396.800,244.079 396.660,244.255 396.200 C 244.427 395.753,245.140 395.600,247.055 395.600 C 248.971 395.600,249.684 395.447,249.855 395.000 C 250.017 394.580,250.672 394.400,252.043 394.400 C 253.516 394.400,254.000 394.252,254.000 393.800 C 254.000 393.333,254.533 393.200,256.400 393.200 C 258.267 393.200,258.800 393.067,258.800 392.600 C 258.800 392.156,259.267 392.000,260.600 392.000 C 261.933 392.000,262.400 391.844,262.400 391.400 C 262.400 390.966,262.846 390.800,264.013 390.800 C 265.077 390.800,265.703 390.596,265.855 390.200 C 265.987 389.858,266.583 389.600,267.243 389.600 C 268.005 389.600,268.400 389.395,268.400 389.000 C 268.400 388.556,268.867 388.400,270.200 388.400 C 271.533 388.400,272.000 388.244,272.000 387.800 C 272.000 387.356,272.467 387.200,273.800 387.200 C 275.133 387.200,275.600 387.044,275.600 386.600 C 275.600 386.156,276.067 386.000,277.400 386.000 C 278.733 386.000,279.200 385.844,279.200 385.400 C 279.200 385.000,279.600 384.800,280.400 384.800 C 281.200 384.800,281.600 384.600,281.600 384.200 C 281.600 383.800,282.000 383.600,282.800 383.600 C 283.600 383.600,284.000 383.400,284.000 383.000 C 284.000 382.599,284.401 382.400,285.213 382.400 C 285.921 382.400,286.521 382.151,286.655 381.800 C 286.782 381.470,287.322 381.200,287.855 381.200 C 288.389 381.200,288.929 380.930,289.055 380.600 C 289.187 380.258,289.783 380.000,290.443 380.000 C 291.205 380.000,291.600 379.795,291.600 379.400 C 291.600 379.000,292.000 378.800,292.800 378.800 C 293.600 378.800,294.000 378.600,294.000 378.200 C 294.000 377.800,294.400 377.600,295.200 377.600 C 296.000 377.600,296.400 377.400,296.400 377.000 C 296.400 376.625,296.779 376.400,297.413 376.400 C 297.969 376.400,298.529 376.130,298.655 375.800 C 298.782 375.470,299.136 375.200,299.443 375.200 C 299.749 375.200,300.000 374.930,300.000 374.600 C 300.000 374.200,300.400 374.000,301.200 374.000 C 302.000 374.000,302.400 373.800,302.400 373.400 C 302.400 373.025,302.779 372.800,303.413 372.800 C 303.969 372.800,304.529 372.530,304.655 372.200 C 304.782 371.870,305.136 371.600,305.443 371.600 C 305.749 371.600,306.000 371.330,306.000 371.000 C 306.000 370.600,306.400 370.400,307.200 370.400 C 308.000 370.400,308.400 370.200,308.400 369.800 C 308.400 369.470,308.747 369.200,309.171 369.200 C 309.596 369.200,310.213 368.930,310.543 368.600 C 310.873 368.270,311.336 368.000,311.571 368.000 C 311.807 368.000,312.000 367.730,312.000 367.400 C 312.000 367.070,312.347 366.800,312.771 366.800 C 313.196 366.800,313.813 366.530,314.143 366.200 C 314.473 365.870,314.936 365.600,315.171 365.600 C 315.407 365.600,315.600 365.330,315.600 365.000 C 315.600 364.670,315.870 364.400,316.200 364.400 C 316.530 364.400,316.800 364.144,316.800 363.832 C 316.800 363.519,317.340 363.145,318.000 363.000 C 318.660 362.855,319.200 362.571,319.200 362.368 C 319.200 362.166,319.400 362.000,319.644 362.000 C 320.258 362.000,321.985 360.310,321.993 359.700 C 321.997 359.425,322.450 359.200,323.000 359.200 C 323.622 359.200,324.000 358.973,324.000 358.600 C 324.000 358.267,324.356 358.000,324.800 358.000 C 325.244 358.000,325.600 357.733,325.600 357.400 C 325.600 357.070,325.870 356.800,326.200 356.800 C 326.530 356.800,326.800 356.530,326.800 356.200 C 326.800 355.825,327.179 355.600,327.813 355.600 C 328.369 355.600,328.929 355.330,329.055 355.000 C 329.182 354.670,329.536 354.400,329.843 354.400 C 330.149 354.400,330.400 354.130,330.400 353.800 C 330.400 353.470,330.670 353.200,331.000 353.200 C 331.330 353.200,331.600 352.930,331.600 352.600 C 331.600 352.270,331.870 352.000,332.200 352.000 C 332.530 352.000,332.800 351.730,332.800 351.400 C 332.800 351.070,333.070 350.800,333.400 350.800 C 333.730 350.800,334.000 350.530,334.000 350.200 C 334.000 349.870,334.270 349.600,334.600 349.600 C 334.930 349.600,335.200 349.330,335.200 349.000 C 335.200 348.670,335.470 348.400,335.800 348.400 C 336.130 348.400,336.400 348.130,336.400 347.800 C 336.400 347.470,336.670 347.200,337.000 347.200 C 337.330 347.200,337.600 346.930,337.600 346.600 C 337.600 346.270,337.937 346.000,338.349 346.000 C 339.324 346.000,346.000 339.324,346.000 338.349 C 346.000 337.937,346.270 337.600,346.600 337.600 C 346.930 337.600,347.200 337.330,347.200 337.000 C 347.200 336.670,347.470 336.400,347.800 336.400 C 348.130 336.400,348.400 336.130,348.400 335.800 C 348.400 335.470,348.670 335.200,349.000 335.200 C 349.330 335.200,349.600 334.930,349.600 334.600 C 349.600 334.270,349.870 334.000,350.200 334.000 C 350.530 334.000,350.800 333.730,350.800 333.400 C 350.800 333.070,351.070 332.800,351.400 332.800 C 351.730 332.800,352.000 332.530,352.000 332.200 C 352.000 331.870,352.270 331.600,352.600 331.600 C 352.930 331.600,353.200 331.330,353.200 331.000 C 353.200 330.670,353.470 330.400,353.800 330.400 C 354.130 330.400,354.400 330.149,354.400 329.843 C 354.400 329.536,354.670 329.182,355.000 329.055 C 355.330 328.929,355.600 328.369,355.600 327.813 C 355.600 327.179,355.825 326.800,356.200 326.800 C 356.530 326.800,356.800 326.530,356.800 326.200 C 356.800 325.870,357.070 325.600,357.400 325.600 C 357.733 325.600,358.000 325.244,358.000 324.800 C 358.000 324.356,358.267 324.000,358.600 324.000 C 358.973 324.000,359.200 323.622,359.200 323.000 C 359.200 322.450,359.400 322.000,359.644 322.000 C 360.258 322.000,361.985 320.310,361.993 319.700 C 361.997 319.425,362.166 319.200,362.368 319.200 C 362.571 319.200,362.855 318.660,363.000 318.000 C 363.145 317.340,363.519 316.800,363.832 316.800 C 364.144 316.800,364.400 316.530,364.400 316.200 C 364.400 315.870,364.670 315.600,365.000 315.600 C 365.330 315.600,365.600 315.407,365.600 315.171 C 365.600 314.936,365.870 314.473,366.200 314.143 C 366.530 313.813,366.800 313.196,366.800 312.771 C 366.800 312.347,367.070 312.000,367.400 312.000 C 367.730 312.000,368.000 311.807,368.000 311.571 C 368.000 311.336,368.270 310.873,368.600 310.543 C 368.930 310.213,369.200 309.596,369.200 309.171 C 369.200 308.747,369.470 308.400,369.800 308.400 C 370.200 308.400,370.400 308.000,370.400 307.200 C 370.400 306.400,370.600 306.000,371.000 306.000 C 371.330 306.000,371.600 305.749,371.600 305.443 C 371.600 305.136,371.870 304.782,372.200 304.655 C 372.530 304.529,372.800 303.969,372.800 303.413 C 372.800 302.779,373.025 302.400,373.400 302.400 C 373.800 302.400,374.000 302.000,374.000 301.200 C 374.000 300.400,374.200 300.000,374.600 300.000 C 374.930 300.000,375.200 299.749,375.200 299.443 C 375.200 299.136,375.470 298.782,375.800 298.655 C 376.130 298.529,376.400 297.969,376.400 297.413 C 376.400 296.779,376.625 296.400,377.000 296.400 C 377.400 296.400,377.600 296.000,377.600 295.200 C 377.600 294.400,377.800 294.000,378.200 294.000 C 378.600 294.000,378.800 293.600,378.800 292.800 C 378.800 292.000,379.000 291.600,379.400 291.600 C 379.795 291.600,380.000 291.205,380.000 290.443 C 380.000 289.783,380.258 289.187,380.600 289.055 C 380.930 288.929,381.200 288.389,381.200 287.855 C 381.200 287.322,381.470 286.782,381.800 286.655 C 382.151 286.521,382.400 285.921,382.400 285.213 C 382.400 284.401,382.599 284.000,383.000 284.000 C 383.400 284.000,383.600 283.600,383.600 282.800 C 383.600 282.000,383.800 281.600,384.200 281.600 C 384.600 281.600,384.800 281.200,384.800 280.400 C 384.800 279.600,385.000 279.200,385.400 279.200 C 385.844 279.200,386.000 278.733,386.000 277.400 C 386.000 276.067,386.156 275.600,386.600 275.600 C 387.044 275.600,387.200 275.133,387.200 273.800 C 387.200 272.467,387.356 272.000,387.800 272.000 C 388.244 272.000,388.400 271.533,388.400 270.200 C 388.400 268.867,388.556 268.400,389.000 268.400 C 389.395 268.400,389.600 268.005,389.600 267.243 C 389.600 266.583,389.858 265.987,390.200 265.855 C 390.596 265.703,390.800 265.077,390.800 264.013 C 390.800 262.846,390.966 262.400,391.400 262.400 C 391.844 262.400,392.000 261.933,392.000 260.600 C 392.000 259.267,392.156 258.800,392.600 258.800 C 393.067 258.800,393.200 258.267,393.200 256.400 C 393.200 254.533,393.333 254.000,393.800 254.000 C 394.252 254.000,394.400 253.516,394.400 252.043 C 394.400 250.672,394.580 250.017,395.000 249.855 C 395.447 249.684,395.600 248.971,395.600 247.055 C 395.600 245.140,395.753 244.427,396.200 244.255 C 396.660 244.079,396.800 243.321,396.800 241.013 C 396.800 238.601,396.920 238.000,397.400 238.000 C 397.880 238.000,398.000 237.400,398.000 235.000 C 398.000 232.600,398.120 232.000,398.600 232.000 C 399.100 232.000,399.200 231.200,399.200 227.200 C 399.200 224.267,399.356 222.400,399.600 222.400 C 399.862 222.400,400.000 214.667,400.000 200.000 C 400.000 185.333,399.862 177.600,399.600 177.600 C 399.356 177.600,399.200 175.733,399.200 172.800 C 399.200 168.800,399.100 168.000,398.600 168.000 C 398.120 168.000,398.000 167.400,398.000 165.000 C 398.000 162.600,397.880 162.000,397.400 162.000 C 396.920 162.000,396.800 161.399,396.800 158.987 C 396.800 156.679,396.660 155.921,396.200 155.745 C 395.753 155.573,395.600 154.860,395.600 152.945 C 395.600 151.029,395.447 150.316,395.000 150.145 C 394.580 149.983,394.400 149.328,394.400 147.957 C 394.400 146.484,394.252 146.000,393.800 146.000 C 393.333 146.000,393.200 145.467,393.200 143.600 C 393.200 141.733,393.067 141.200,392.600 141.200 C 392.156 141.200,392.000 140.733,392.000 139.400 C 392.000 138.067,391.844 137.600,391.400 137.600 C 390.966 137.600,390.800 137.154,390.800 135.987 C 390.800 134.923,390.596 134.297,390.200 134.145 C 389.858 134.013,389.600 133.417,389.600 132.757 C 389.600 131.995,389.395 131.600,389.000 131.600 C 388.556 131.600,388.400 131.133,388.400 129.800 C 388.400 128.467,388.244 128.000,387.800 128.000 C 387.356 128.000,387.200 127.533,387.200 126.200 C 387.200 124.867,387.044 124.400,386.600 124.400 C 386.156 124.400,386.000 123.933,386.000 122.600 C 386.000 121.267,385.844 120.800,385.400 120.800 C 385.000 120.800,384.800 120.400,384.800 119.600 C 384.800 118.800,384.600 118.400,384.200 118.400 C 383.800 118.400,383.600 118.000,383.600 117.200 C 383.600 116.400,383.400 116.000,383.000 116.000 C 382.599 116.000,382.400 115.599,382.400 114.787 C 382.400 114.079,382.151 113.479,381.800 113.345 C 381.470 113.218,381.200 112.678,381.200 112.145 C 381.200 111.611,380.930 111.071,380.600 110.945 C 380.258 110.813,380.000 110.217,380.000 109.557 C 380.000 108.795,379.795 108.400,379.400 108.400 C 379.000 108.400,378.800 108.000,378.800 107.200 C 378.800 106.400,378.600 106.000,378.200 106.000 C 377.800 106.000,377.600 105.600,377.600 104.800 C 377.600 104.000,377.400 103.600,377.000 103.600 C 376.625 103.600,376.400 103.221,376.400 102.587 C 376.400 102.031,376.130 101.471,375.800 101.345 C 375.470 101.218,375.200 100.864,375.200 100.557 C 375.200 100.251,374.930 100.000,374.600 100.000 C 374.200 100.000,374.000 99.600,374.000 98.800 C 374.000 98.000,373.800 97.600,373.400 97.600 C 373.025 97.600,372.800 97.221,372.800 96.587 C 372.800 96.031,372.530 95.471,372.200 95.345 C 371.870 95.218,371.600 94.864,371.600 94.557 C 371.600 94.251,371.330 94.000,371.000 94.000 C 370.600 94.000,370.400 93.600,370.400 92.800 C 370.400 92.000,370.200 91.600,369.800 91.600 C 369.470 91.600,369.200 91.253,369.200 90.829 C 369.200 90.404,368.930 89.787,368.600 89.457 C 368.270 89.127,368.000 88.664,368.000 88.429 C 368.000 88.193,367.730 88.000,367.400 88.000 C 367.070 88.000,366.800 87.653,366.800 87.229 C 366.800 86.804,366.530 86.187,366.200 85.857 C 365.870 85.527,365.600 85.064,365.600 84.829 C 365.600 84.593,365.330 84.400,365.000 84.400 C 364.670 84.400,364.400 84.130,364.400 83.800 C 364.400 83.470,364.150 83.200,363.843 83.200 C 363.537 83.200,363.165 82.714,363.016 82.120 C 362.867 81.526,362.342 80.667,361.850 80.211 C 361.358 79.755,360.836 79.071,360.690 78.691 C 360.544 78.311,360.149 78.000,359.813 78.000 C 359.426 78.000,359.200 77.631,359.200 77.000 C 359.200 76.378,358.973 76.000,358.600 76.000 C 358.267 76.000,358.000 75.644,358.000 75.200 C 358.000 74.756,357.733 74.400,357.400 74.400 C 357.070 74.400,356.800 74.130,356.800 73.800 C 356.800 73.470,356.530 73.200,356.200 73.200 C 355.841 73.200,355.600 72.831,355.600 72.281 C 355.600 71.751,355.100 70.947,354.417 70.381 C 353.766 69.842,353.226 69.175,353.217 68.900 C 353.208 68.625,352.930 68.400,352.600 68.400 C 352.270 68.400,352.000 68.130,352.000 67.800 C 352.000 67.470,351.730 67.200,351.400 67.200 C 351.070 67.200,350.800 66.930,350.800 66.600 C 350.800 66.270,350.530 66.000,350.200 66.000 C 349.870 66.000,349.600 65.730,349.600 65.400 C 349.600 65.070,349.330 64.800,349.000 64.800 C 348.670 64.800,348.400 64.530,348.400 64.200 C 348.400 63.870,348.130 63.600,347.800 63.600 C 347.470 63.600,347.200 63.330,347.200 63.000 C 347.200 62.670,346.930 62.400,346.600 62.400 C 346.270 62.400,346.000 62.130,346.000 61.800 C 346.000 61.470,345.730 61.200,345.400 61.200 C 345.069 61.200,344.800 60.845,344.800 60.408 C 344.800 59.419,339.324 54.000,338.324 54.000 C 337.926 54.000,337.600 53.730,337.600 53.400 C 337.600 53.070,337.330 52.800,337.000 52.800 C 336.670 52.800,336.400 52.530,336.400 52.200 C 336.400 51.870,336.130 51.600,335.800 51.600 C 335.470 51.600,335.200 51.330,335.200 51.000 C 335.200 50.670,334.930 50.400,334.600 50.400 C 334.270 50.400,334.000 50.130,334.000 49.800 C 334.000 49.470,333.730 49.200,333.400 49.200 C 333.070 49.200,332.800 48.930,332.800 48.600 C 332.800 48.270,332.530 48.000,332.200 48.000 C 331.870 48.000,331.600 47.730,331.600 47.400 C 331.600 47.070,331.330 46.800,331.000 46.800 C 330.670 46.800,330.400 46.530,330.400 46.200 C 330.400 45.870,330.149 45.600,329.843 45.600 C 329.536 45.600,329.182 45.330,329.055 45.000 C 328.929 44.670,328.369 44.400,327.813 44.400 C 327.179 44.400,326.800 44.175,326.800 43.800 C 326.800 43.470,326.530 43.200,326.200 43.200 C 325.870 43.200,325.600 42.930,325.600 42.600 C 325.600 42.267,325.244 42.000,324.800 42.000 C 324.356 42.000,324.000 41.733,324.000 41.400 C 324.000 41.027,323.622 40.800,323.000 40.800 C 322.378 40.800,322.000 40.573,322.000 40.200 C 322.000 39.870,321.814 39.600,321.587 39.600 C 321.359 39.600,320.652 39.067,320.014 38.415 C 319.377 37.763,318.393 37.113,317.828 36.971 C 317.262 36.829,316.800 36.463,316.800 36.157 C 316.800 35.850,316.530 35.600,316.200 35.600 C 315.870 35.600,315.600 35.330,315.600 35.000 C 315.600 34.670,315.407 34.400,315.171 34.400 C 314.936 34.400,314.473 34.130,314.143 33.800 C 313.813 33.470,313.196 33.200,312.771 33.200 C 312.347 33.200,312.000 32.930,312.000 32.600 C 312.000 32.270,311.807 32.000,311.571 32.000 C 311.336 32.000,310.873 31.730,310.543 31.400 C 310.213 31.070,309.596 30.800,309.171 30.800 C 308.747 30.800,308.400 30.530,308.400 30.200 C 308.400 29.800,308.000 29.600,307.200 29.600 C 306.400 29.600,306.000 29.400,306.000 29.000 C 306.000 28.670,305.807 28.400,305.571 28.400 C 305.336 28.400,304.873 28.130,304.543 27.800 C 304.213 27.470,303.596 27.200,303.171 27.200 C 302.747 27.200,302.400 26.930,302.400 26.600 C 302.400 26.200,302.000 26.000,301.200 26.000 C 300.400 26.000,300.000 25.800,300.000 25.400 C 300.000 25.070,299.749 24.800,299.443 24.800 C 299.136 24.800,298.782 24.530,298.655 24.200 C 298.529 23.870,297.969 23.600,297.413 23.600 C 296.779 23.600,296.400 23.375,296.400 23.000 C 296.400 22.600,296.000 22.400,295.200 22.400 C 294.400 22.400,294.000 22.200,294.000 21.800 C 294.000 21.405,293.605 21.200,292.843 21.200 C 292.183 21.200,291.587 20.942,291.455 20.600 C 291.329 20.270,290.789 20.000,290.255 20.000 C 289.722 20.000,289.182 19.730,289.055 19.400 C 288.929 19.070,288.364 18.800,287.800 18.800 C 287.236 18.800,286.671 18.530,286.545 18.200 C 286.413 17.858,285.817 17.600,285.157 17.600 C 284.395 17.600,284.000 17.395,284.000 17.000 C 284.000 16.600,283.600 16.400,282.800 16.400 C 282.000 16.400,281.600 16.200,281.600 15.800 C 281.600 15.400,281.200 15.200,280.400 15.200 C 279.600 15.200,279.200 15.000,279.200 14.600 C 279.200 14.156,278.733 14.000,277.400 14.000 C 276.067 14.000,275.600 13.844,275.600 13.400 C 275.600 12.956,275.133 12.800,273.800 12.800 C 272.467 12.800,272.000 12.644,272.000 12.200 C 272.000 11.756,271.533 11.600,270.200 11.600 C 268.867 11.600,268.400 11.444,268.400 11.000 C 268.400 10.605,268.005 10.400,267.243 10.400 C 266.583 10.400,265.987 10.142,265.855 9.800 C 265.703 9.404,265.077 9.200,264.013 9.200 C 262.846 9.200,262.400 9.034,262.400 8.600 C 262.400 8.156,261.933 8.000,260.600 8.000 C 259.267 8.000,258.800 7.844,258.800 7.400 C 258.800 6.933,258.267 6.800,256.400 6.800 C 254.533 6.800,254.000 6.667,254.000 6.200 C 254.000 5.748,253.516 5.600,252.043 5.600 C 250.672 5.600,250.017 5.420,249.855 5.000 C 249.684 4.553,248.971 4.400,247.055 4.400 C 245.140 4.400,244.427 4.247,244.255 3.800 C 244.079 3.340,243.321 3.200,241.013 3.200 C 238.601 3.200,238.000 3.080,238.000 2.600 C 238.000 2.120,237.400 2.000,235.000 2.000 C 232.600 2.000,232.000 1.880,232.000 1.400 C 232.000 0.900,231.200 0.800,227.200 0.800 C 224.267 0.800,222.400 0.644,222.400 0.400 C 222.400 0.138,214.667 0.000,200.000 0.000 C 185.333 0.000,177.600 0.138,177.600 0.400 M218.495 18.595 C 220.197 18.693,222.143 19.060,222.819 19.410 C 223.495 19.760,226.063 20.306,228.524 20.624 C 237.327 21.760,250.854 25.132,259.600 28.371 C 261.470 29.064,264.440 30.139,266.200 30.760 C 270.884 32.413,288.913 41.033,290.653 42.451 C 290.902 42.654,293.477 44.251,296.375 46.000 C 300.858 48.705,314.962 58.804,316.200 60.194 C 316.420 60.441,318.130 61.976,320.000 63.605 C 332.221 74.252,346.182 90.670,353.924 103.498 C 355.617 106.304,357.381 109.140,357.844 109.800 C 359.661 112.392,368.099 130.174,369.422 134.200 C 369.711 135.080,370.698 137.780,371.616 140.200 C 372.533 142.620,373.626 145.950,374.045 147.600 C 374.464 149.250,375.155 151.770,375.581 153.200 C 377.012 158.006,378.769 166.168,379.239 170.200 C 379.496 172.400,380.135 175.518,380.659 177.130 C 382.438 182.603,382.419 219.683,380.634 223.134 C 380.258 223.862,379.681 226.559,379.352 229.128 C 378.750 233.833,377.026 241.984,375.614 246.800 C 375.195 248.230,374.497 250.750,374.063 252.400 C 373.630 254.050,372.613 257.200,371.804 259.400 C 370.996 261.600,369.914 264.570,369.402 266.000 C 368.315 269.032,367.359 271.243,364.993 276.200 C 360.838 284.907,359.048 288.412,357.634 290.607 C 357.065 291.490,356.386 292.570,356.125 293.007 C 351.912 300.042,346.576 307.962,345.213 309.200 C 345.092 309.310,344.498 310.120,343.894 311.000 C 337.967 319.631,319.631 337.967,311.000 343.894 C 310.120 344.498,309.310 345.092,309.200 345.213 C 307.962 346.576,300.042 351.912,293.007 356.125 C 292.570 356.386,291.490 357.065,290.607 357.634 C 288.412 359.048,284.907 360.838,276.200 364.993 C 271.243 367.359,269.032 368.315,266.000 369.402 C 264.570 369.914,261.600 370.996,259.400 371.804 C 257.200 372.613,254.050 373.628,252.400 374.060 C 250.750 374.492,248.230 375.185,246.800 375.601 C 241.798 377.053,233.761 378.759,229.128 379.352 C 226.559 379.681,223.862 380.258,223.134 380.634 C 219.683 382.419,182.603 382.438,177.130 380.659 C 175.518 380.135,172.400 379.496,170.200 379.239 C 166.171 378.769,158.013 377.014,153.200 375.582 C 151.770 375.156,149.250 374.459,147.600 374.033 C 145.950 373.607,142.620 372.513,140.200 371.603 C 137.780 370.693,135.080 369.711,134.200 369.422 C 130.174 368.099,112.392 359.661,109.800 357.844 C 109.140 357.381,106.304 355.617,103.498 353.924 C 90.670 346.182,74.252 332.221,63.605 320.000 C 61.976 318.130,60.441 316.420,60.194 316.200 C 58.804 314.962,48.705 300.858,46.000 296.375 C 44.251 293.477,42.654 290.902,42.451 290.653 C 41.033 288.913,32.413 270.884,30.760 266.200 C 30.139 264.440,29.064 261.470,28.371 259.600 C 26.667 254.998,24.232 246.504,22.637 239.600 C 21.351 234.030,21.294 233.716,20.624 228.524 C 20.306 226.063,19.732 223.453,19.348 222.724 C 17.886 219.949,17.857 180.106,19.315 177.340 C 19.680 176.647,20.171 174.757,20.406 173.140 C 20.641 171.523,21.013 168.940,21.233 167.400 C 21.695 164.170,23.246 157.378,24.383 153.600 C 24.814 152.170,25.355 150.100,25.585 149.000 C 25.815 147.900,26.438 145.830,26.970 144.400 C 27.502 142.970,28.610 139.910,29.432 137.600 C 32.903 127.849,38.765 115.519,43.978 107.000 C 45.728 104.140,47.710 100.900,48.383 99.800 C 49.055 98.700,50.233 96.990,51.001 96.000 C 51.768 95.010,52.801 93.637,53.298 92.949 C 62.667 79.960,76.222 65.918,87.960 57.043 C 90.028 55.479,92.368 53.709,93.160 53.110 C 103.770 45.078,122.150 34.997,133.910 30.757 C 135.830 30.066,139.110 28.874,141.200 28.110 C 147.254 25.896,162.170 21.988,167.500 21.218 C 169.095 20.988,171.678 20.615,173.240 20.390 C 174.802 20.164,176.647 19.674,177.340 19.300 C 179.235 18.279,205.325 17.832,218.495 18.595 M189.600 41.220 C 186.190 41.380,180.700 41.968,177.400 42.525 C 174.100 43.082,170.320 43.705,169.000 43.909 C 164.723 44.572,154.321 47.389,149.200 49.271 C 147.990 49.716,146.190 50.350,145.200 50.681 C 142.182 51.690,136.326 54.053,134.000 55.201 C 126.031 59.131,121.702 61.356,120.818 61.976 C 120.258 62.369,118.360 63.546,116.600 64.593 C 111.881 67.398,110.656 68.226,105.662 71.985 C 103.167 73.863,100.684 75.690,100.145 76.045 C 96.426 78.493,78.491 96.424,76.055 100.129 C 75.695 100.676,73.863 103.167,71.985 105.662 C 68.226 110.656,67.398 111.881,64.593 116.600 C 63.546 118.360,62.369 120.258,61.976 120.818 C 61.356 121.702,59.131 126.031,55.201 134.000 C 54.053 136.326,51.690 142.182,50.681 145.200 C 50.350 146.190,49.716 147.990,49.271 149.200 C 47.389 154.321,44.572 164.723,43.909 169.000 C 43.705 170.320,43.087 174.100,42.536 177.400 C 40.466 189.805,40.463 210.035,42.530 222.600 C 43.073 225.900,43.690 229.680,43.902 231.000 C 44.954 237.554,49.820 253.630,53.103 261.400 C 63.569 286.165,80.406 308.375,101.098 324.709 C 107.563 329.813,111.727 332.768,115.912 335.223 C 117.954 336.420,120.744 338.076,122.112 338.902 C 123.481 339.729,125.026 340.587,125.546 340.810 C 126.066 341.033,128.676 342.301,131.346 343.627 C 135.986 345.933,140.680 347.919,145.000 349.405 C 153.882 352.459,156.558 353.304,159.000 353.825 C 160.540 354.153,163.420 354.856,165.400 355.387 C 167.380 355.918,170.980 356.630,173.400 356.969 C 175.820 357.308,179.330 357.884,181.200 358.249 C 186.886 359.357,213.796 359.214,220.000 358.043 C 222.530 357.566,226.400 356.928,228.600 356.627 C 230.800 356.325,234.220 355.619,236.200 355.058 C 238.180 354.497,240.520 353.914,241.400 353.763 C 242.866 353.512,247.863 351.929,255.000 349.456 C 258.713 348.169,263.453 346.267,265.415 345.275 C 266.287 344.834,268.763 343.633,270.917 342.605 C 277.339 339.542,285.893 334.411,291.980 329.971 C 294.221 328.337,296.485 326.719,297.012 326.375 C 303.205 322.332,322.406 303.126,326.375 297.005 C 326.719 296.475,328.355 294.186,330.012 291.920 C 333.747 286.810,340.045 276.321,342.573 271.000 C 343.619 268.800,344.791 266.370,345.179 265.599 C 347.570 260.847,352.685 246.297,353.825 241.000 C 354.157 239.460,354.799 236.953,355.253 235.428 C 355.706 233.904,356.324 230.844,356.626 228.628 C 356.928 226.413,357.566 222.530,358.043 220.000 C 359.214 213.796,359.357 186.886,358.249 181.200 C 357.884 179.330,357.306 175.820,356.965 173.400 C 356.623 170.980,355.828 167.020,355.198 164.600 C 354.568 162.180,353.934 159.570,353.790 158.800 C 353.497 157.235,351.043 149.493,349.289 144.600 C 347.406 139.347,346.173 136.459,343.630 131.346 C 342.302 128.676,341.033 126.066,340.810 125.546 C 340.587 125.026,339.729 123.481,338.902 122.112 C 338.076 120.744,336.420 117.954,335.223 115.912 C 332.768 111.727,329.813 107.563,324.709 101.098 C 308.375 80.406,286.165 63.569,261.400 53.103 C 253.630 49.820,237.554 44.954,231.000 43.902 C 229.680 43.690,225.900 43.073,222.600 42.529 C 213.536 41.037,202.641 40.605,189.600 41.220 M143.156 133.779 C 158.571 138.166,170.906 150.047,174.859 164.315 C 175.329 166.012,175.958 168.294,176.257 169.387 C 178.358 177.074,177.661 177.600,165.373 177.600 C 154.119 177.600,154.849 177.883,153.609 173.034 C 148.932 154.748,127.763 148.883,115.110 162.367 C 112.355 165.304,109.691 170.542,109.305 173.784 C 108.853 177.579,108.787 177.600,97.550 177.600 C 84.836 177.600,84.414 177.086,87.827 165.743 C 95.223 141.162,119.603 127.078,143.156 133.779 M279.800 133.749 C 287.073 135.838,295.934 140.422,298.000 143.162 C 298.110 143.308,298.702 143.813,299.316 144.284 C 305.974 149.393,313.426 164.387,313.702 173.229 C 313.843 177.756,314.316 177.572,302.544 177.587 C 291.273 177.602,291.414 177.646,290.821 173.956 C 289.145 163.530,279.374 155.155,268.800 155.082 C 257.544 155.004,248.628 162.547,246.050 174.329 C 245.320 177.668,245.557 177.600,234.627 177.600 C 222.682 177.600,223.010 177.726,223.302 173.244 C 225.033 146.621,254.037 126.346,279.800 133.749 M176.217 246.453 C 176.513 246.754,177.017 248.260,177.337 249.800 C 180.216 263.672,195.281 271.857,207.804 266.353 C 215.868 262.808,219.864 257.565,222.161 247.512 C 222.571 245.717,223.345 245.582,233.406 245.554 C 246.311 245.517,246.260 245.463,243.421 256.213 C 239.647 270.507,231.945 279.922,218.433 286.762 C 212.132 289.952,198.382 291.869,192.105 290.432 C 176.410 286.840,165.353 278.581,158.766 265.532 C 155.145 258.359,153.056 247.613,154.973 246.022 C 156.226 244.983,175.146 245.367,176.217 246.453 " stroke="none" fill="#fcfbfb" fill-rule="evenodd"></path></g></svg>