<svg id="Capa_1" enable-background="new 0 0 512 512" height="512" viewBox="0 0 512 512" width="512" xmlns="http://www.w3.org/2000/svg"><g><path d="m452 121v-61h-61c0-33.084-26.916-60-60-60s-60 26.916-60 60h-45c-124.38 0-226 101.632-226 226 0 124.38 101.632 226 226 226 124.38 0 226-101.632 226-226v-45c33.084 0 60-26.916 60-60s-26.916-60-60-60zm-241-30.431v69.304c18.086-6.039 21.725-8.873 30-8.873 16.542 0 30 13.458 30 30s-13.458 30-30 30c-8.287 0-11.967-2.851-30-8.873v68.873h-30c0-33.084-26.916-60-60-60s-60 26.916-60 60h-30.431c7.31-96.142 84.289-173.121 180.431-180.431zm-180.431 210.431h69.306c-6.047-18.103-8.875-21.725-8.875-30 0-16.542 13.458-30 30-30s30 13.458 30 30c0 8.275-2.832 11.907-8.875 30h68.875v30c-33.084 0-60 26.916-60 60s26.916 60 60 60v30.431c-96.142-7.31-173.121-84.289-180.431-180.431zm210.431 180.431v-69.304c-18.086 6.039-21.725 8.873-30 8.873-16.542 0-30-13.458-30-30s13.458-30 30-30c8.287 0 11.967 2.851 30 8.873v-68.873h30c0 33.084 26.916 60 60 60s60-26.926 60-60.01l30.431.01c-7.31 96.142-84.289 173.121-180.431 180.431zm211-270.431c-6.802 0-11.956-3.094-30-9.285v69.285h-69.875c6.046 18.103 8.875 21.725 8.875 30 0 16.542-13.458 30-30 30s-30-13.458-30-30c0-8.275 2.832-11.907 8.875-30h-68.875v-30c33.084 0 60-26.916 60-60s-26.916-60-60-60v-31h69.285c-6.121-17.842-9.285-23.202-9.285-30 0-16.542 13.458-30 30-30s30 13.458 30 30c0 6.804-3.098 11.966-9.285 30h70.285v70.285c17.842-6.122 23.202-9.285 30-9.285 16.542 0 30 13.458 30 30s-13.458 30-30 30z"/></g></svg>